# xmcd CD database file
#
# Track frame offsets:
#	183
#	13313
#	30633
#	48448
#	63238
#	76475
#	90085
#	105285
#	125793
#	141368
#
# Disc length: 2133 seconds
#
# Revision: 3
# Processed by: cddbd v1.5.2PL0 Copyright (c) Steve Scherf et al.
# Submitted via: CDex 1.72
#
DISCID=7c08530a
DTITLE=Bogguss, Suzy (USA-91-Aces-cty) - Aces
DYEAR=1991
DGENRE=Country
TTITLE0=Outbound Plane
TTITLE1=Aces
TTITLE2=Someday Soon
TTITLE3=Let Goodbye Hurt
TTITLE4=Save Yourself
TTITLE5=Yellow River Road
TTITLE6=Part of Me
TTITLE7=Letting Go
TTITLE8=Music On The Wind
TTITLE9=Still Hold On
EXTD=YEAR: 1991
EXTT0=
EXTT1=
EXTT2=
EXTT3=
EXTT4=
EXTT5=
EXTT6=
EXTT7=
EXTT8=
EXTT9=
PLAYORDER=
